<?xml version="1.0" encoding="UTF-8"?>
<svg xmlns="http://www.w3.org/2000/svg" width="24" height="24" viewBox="0 0 24 24" aria-hidden="true" focusable="false">
  <title>WhatsApp</title>
  <g fill="none" fill-rule="evenodd">
    <path d="M0 0h24v24H0z"/>
    <path fill="#FFFFFF" d="M20.52 3.48A11.77 11.77 0 0 0 12 0C5.38 0 0 5.38 0 12c0 2.1.55 4.08 1.6 5.86L0 24l6.3-1.66A11.86 11.86 0 0 0 12 23.8c6.62 0 12-5.38 12-12 0-3.2-1.25-6.22-3.48-8.34Zm-8.52 18.11c-1.94 0-3.84-.52-5.5-1.5l-.4-.23-3.73.98.99-3.63-.26-.41a9.5 9.5 0 1 1 8.9 4.79Zm5.08-6.32c-.28-.14-1.67-.82-1.93-.91-.26-.1-.45-.14-.64.14-.19.28-.74.91-.9 1.1-.17.19-.33.21-.62.07-.28-.14-1.2-.44-2.29-1.4-.85-.75-1.42-1.67-1.59-1.95-.17-.28-.02-.43.12-.57.12-.12.28-.32.42-.48.14-.16.2-.28.3-.47.1-.2.05-.36-.02-.5-.07-.14-.66-1.6-.9-2.2-.24-.58-.5-.5-.67-.51-.17-.01-.36-.02-.55-.02-.19 0-.5.07-.76.36-.26.28-1 1-1 2.43 0 1.43 1.02 2.8 1.16 3 .14.2 2 3.2 4.87 4.47.68.3 1.2.48 1.56.62.67.21 1.28.2 1.76.12.54-.08 1.66-.68 1.89-1.34.23-.66.23-1.23.16-1.35-.07-.12-.25-.18-.55-.32Z"/>
  </g>
</svg>
